HIERARCHY
ROOT Hips
{
    OFFSET 0.0 0.0 0.0
    CHANNELS 6 Xposition Yposition Zposition Zrotation Xrotation Yrotation
    JOINT LeftHipJoint
    {
        OFFSET 0.1 0.0 0.0
        CHANNELS 3 Zrotation Xrotation Yrotation
        JOINT LeftUpLeg
        {
            OFFSET 120.30001738311887 0.0 0.0
            CHANNELS 3 Zrotation Xrotation Yrotation
            JOINT LeftLeg
            {
                OFFSET 0.0 0.0 -404.65797037525465
                CHANNELS 3 Zrotation Xrotation Yrotation
                JOINT LeftFoot
                {
                    OFFSET 0.0 0.0 -398.616344162595
                    CHANNELS 3 Zrotation Xrotation Yrotation
                    End Site
                    {
                        OFFSET 0.0 -0.1 0.0
                    }
                }
            }
        }
    }
    JOINT LowerBack
    {
        OFFSET 0.0 0.0 0.1
        CHANNELS 3 Zrotation Xrotation Yrotation
        JOINT Spine
        {
            OFFSET 0.0 0.0 219.2679092387339
            CHANNELS 3 Zrotation Xrotation Yrotation
            JOINT Spine1
            {
                OFFSET 0.0 0.0 251.78886924950456
                CHANNELS 3 Zrotation Xrotation Yrotation
                JOINT LeftShoulder
                {
                    OFFSET 0.1 0.0 0.0
                    CHANNELS 3 Zrotation Xrotation Yrotation
                    JOINT LeftArm
                    {
                        OFFSET 138.0390282760816 0.0 0.0
                        CHANNELS 3 Zrotation Xrotation Yrotation
                        JOINT LeftForeArm
                        {
                            OFFSET 257.39671087631086 0.0 0.0
                            CHANNELS 3 Zrotation Xrotation Yrotation
                            JOINT LeftHand
                            {
                                OFFSET 244.0761998946554 0.0 0.0
                                CHANNELS 3 Zrotation Xrotation Yrotation
                                End Site
                                {
                                    OFFSET 0.1 0.0 0.0
                                }
                            }
                        }
                    }
                }
                JOINT Neck
                {
                    OFFSET 0.0 0.0 0.1
                    CHANNELS 3 Zrotation Xrotation Yrotation
                    JOINT Neck1
                    {
                        OFFSET 0.0 0.0 106.82091624748529
                        CHANNELS 3 Zrotation Xrotation Yrotation
                        End Site
                        {
                            OFFSET 0.0 0.0 117.15103758916506
                        }
                    }
                }
                JOINT RightShoulder
                {
                    OFFSET -0.1 0.0 0.0
                    CHANNELS 3 Zrotation Xrotation Yrotation
                    JOINT RightArm
                    {
                        OFFSET -138.0390282760816 0.0 0.0
                        CHANNELS 3 Zrotation Xrotation Yrotation
                        JOINT RightForeArm
                        {
                            OFFSET -257.39671087631086 0.0 0.0
                            CHANNELS 3 Zrotation Xrotation Yrotation
                            JOINT RightHand
                            {
                                OFFSET -244.0761998946554 0.0 0.0
                                CHANNELS 3 Zrotation Xrotation Yrotation
                                End Site
                                {
                                    OFFSET -0.1 0.0 0.0
                                }
                            }
                        }
                    }
                }
            }
        }
    }
    JOINT RightHipJoint
    {
        OFFSET -0.1 0.0 0.0
        CHANNELS 3 Zrotation Xrotation Yrotation
        JOINT RightUpLeg
        {
            OFFSET -120.30001738311887 0.0 0.0
            CHANNELS 3 Zrotation Xrotation Yrotation
            JOINT RightLeg
            {
                OFFSET 0.0 0.0 -404.65797037525465
                CHANNELS 3 Zrotation Xrotation Yrotation
                JOINT RightFoot
                {
                    OFFSET 0.0 0.0 -398.616344162595
                    CHANNELS 3 Zrotation Xrotation Yrotation
                    End Site
                    {
                        OFFSET 0.0 -0.1 0.0
                    }
                }
            }
        }
    }
}
MOTION
Frames: 11
Frame Time: 0.03333333333333333
0.0 0.0 798.233497209814 27.865553065456925 1.3388597888568914 6.4595188532409775 0.0 0.0 -4.969616689786745e-17 -0.2715765781294227 -20.356142009043236 -3.0883388011692325 -1.322714230662096 29.823396574629772 0.9380725065371192 0.0 0.0 0.0 0.0 0.0 -4.969616689786745e-17 -0.012376202957870753 -0.9634462203115881 0.5200271495792101 2.872254748801529 -8.546734581989792e-16 -2.364738533318722e-15 0.0 0.0 4.969616689786745e-17 -29.57660700186932 14.386599349368359 73.5746311618883 -30.372057817871188 -3.919337149666866e-16 7.514777176643091e-15 9.379550883356588e-32 1.5902773407317584e-15 -6.7586786981099735e-15 0.0 0.0 4.969616689786745e-17 -13.959606859017066 -0.4745292888941089 -11.816213165809394 0.0 0.0 4.969616689786745e-17 -2.9606222409235956 -43.911446175522876 -53.674739431794094 126.12773860857224 -2.8355028151841082e-15 -1.4407816860518786e-15 -1.987846675914698e-16 0.0 0.0 0.0 0.0 -4.969616689786745e-17 -0.1477070089192872 -11.268816761337556 -7.923436865709675 -3.1599766742630058 23.660953200788654 0.4810324425020129 0.0 0.0 3.975693351829396e-16
0.0 0.0 798.233497209814 28.06433409130883 1.390162765664127 6.425203344005763 0.0 0.0 2.1120870931593667e-16 -0.29792366220319677 -20.42142662962479 -3.0418721002039146 -1.2616166844380512 29.97425102311974 0.9464246133698639 1.1034765745125397e-32 -1.5902773407317582e-15 7.951386703658791e-16 0.0 0.0 2.1120870931593667e-16 -0.014526758538813366 -1.0347147451754957 0.6776505782456512 2.9743379016172495 -7.806833827783256e-16 5.671099985807281e-16 0.0 0.0 -1.987846675914698e-16 -29.174244986624394 14.339463234858906 73.5500610602402 -30.450288248414953 6.253326928151344e-15 -1.0865009235792877e-14 0.0 0.0 3.975693351829396e-16 0.0 0.0 -1.987846675914698e-16 -14.208616130473542 -0.41125114377976263 -11.970927365279072 0.0 0.0 -1.987846675914698e-16 -2.8445843992441575 -43.88699538875418 -53.48809746940144 125.6679145322695 -1.4919547064607522e-16 1.422309046400003e-14 0.0 0.0 0.0 0.0 0.0 2.1120870931593667e-16 -0.1614686273148356 -11.274170492505446 -7.9060093896873855 -3.1463512803883997 23.830713754085433 0.47575444920308857 3.1805546814635164e-15 2.2069531490250793e-32 7.951386703658791e-16
0.0 0.0 798.233497209814 28.225222900870197 1.3114939681968543 6.395593781734414 0.0 0.0 -3.975693351829396e-16 -0.3045618464053808 -20.208969709132287 -2.99066353612965 -1.2150424571111504 29.95643286987924 0.9629852218981457 0.0 0.0 3.975693351829396e-16 0.0 0.0 -3.975693351829396e-16 -0.015896519991222803 -1.0951401637903813 0.75595689781648 3.083684519637799 4.0544843341756317e-16 2.8737165530600523e-16 0.0 0.0 -2.484808344893372e-16 -28.89567984063509 14.412916575989176 73.67141360569717 -30.33765282276598 -1.0923110004662941e-15 4.0290350473641055e-15 0.0 0.0 1.987846675914698e-15 0.0 0.0 -2.484808344893372e-16 -14.368583556269305 -0.35022468801333395 -11.982096704565755 0.0 0.0 -2.484808344893372e-16 -2.77406012570116 -43.82207507516688 -53.24082226996495 125.3915490885513 -3.1014342843423882e-15 1.9875065500548307e-14 1.987846675914698e-16 0.0 0.0 0.0 0.0 -3.975693351829396e-16 -0.16401472780447432 -11.081692838115764 -7.893674312349774 -3.138258195491038 23.896056179106136 0.5546226734231386 0.0 0.0 3.975693351829396e-16
0.0 0.0 798.233497209814 28.311164661164142 1.4888249780904799 6.348116765605434 0.0 0.0 -2.577988657826874e-16 -0.2978860808516024 -20.454636038420297 -2.901443224198218 -1.1783440943564019 29.910700899089278 0.9729816818010311 0.0 0.0 -3.975693351829396e-16 0.0 0.0 -2.577988657826874e-16 -0.015960453706307616 -1.1391128059126487 0.8563673949224472 3.154277591288295 -1.5390671530850424e-15 1.881830477402783e-15 8.620910738379216e-34 -3.975693351829396e-16 2.4848083448933725e-16 -29.005971569533077 14.241879611591248 73.7753743079567 -30.106264876277706 -3.884340698983476e-15 -3.926543385197322e-15 0.0 0.0 -2.9817700138720476e-15 8.620910738379216e-34 -3.975693351829396e-16 2.4848083448933725e-16 -14.569834750403226 -0.3786655526291357 -11.928108855667022 8.620910738379216e-34 -3.975693351829396e-16 2.4848083448933725e-16 -2.508407414519821 -43.97166727982514 -52.877397361039336 124.69602602389868 2.9521904475714253e-15 -5.6345615524533956e-15 0.0 0.0 0.0 0.0 0.0 -2.577988657826874e-16 -0.15967371774408964 -11.175811067678126 -7.821407239911098 -3.1147780123479043 23.86836516187517 0.49396110018800254 0.0 -4.969616689786745e-17 0.0
0.0 0.0 798.233497209814 28.373120536875277 1.6613659555462315 6.276816269368825 0.0 0.0 -3.5719119957842225e-16 -0.3277400345473644 -20.557505139390518 -2.8310429998330537 -1.0790716076124431 29.63186556731157 0.9839484778524332 0.0 -1.5902773407317582e-15 0.0 0.0 0.0 -3.5719119957842225e-16 -0.01984209234123295 -1.2951143534611875 1.0485899662269929 3.282038049289585 2.134743780723438e-17 7.451367746096838e-16 0.0 0.0 -3.975693351829396e-16 -28.34947842238975 14.324612555723752 73.7980584457616 -30.43382696508741 4.121889308672346e-15 -1.515339205803431e-14 1.5902773407317588e-15 -8.827812596100317e-32 -6.361109362927035e-15 0.0 0.0 -3.975693351829396e-16 -14.687542586981913 -0.20344680320768693 -11.964258100394712 0.0 0.0 -3.975693351829396e-16 -2.3344241628330824 -43.79769905366084 -52.61674101970267 124.40297517418855 2.9665903303347124e-15 -5.626993348057428e-15 0.0 0.0 0.0 0.0 0.0 -3.5719119957842225e-16 -0.1762614507011123 -11.292752458521557 -7.727599514451523 -3.0243185657905967 23.772324952219915 0.39047474281764155 -1.7241821476758432e-34 -4.969616689786745e-17 -3.975693351829396e-16
0.0 0.0 798.233497209814 28.350768483130445 1.7229104077674846 6.288093871972257 0.0 0.0 -6.833222948456774e-17 -0.30351415308669294 -20.545162579240394 -2.8473527608886036 -1.113677314428431 29.330284117816866 1.095054915157264 0.0 0.0 -3.975693351829396e-16 0.0 0.0 -6.833222948456774e-17 -0.019742999322230077 -1.3902997250108011 1.0653322488690276 3.3025547610610855 -5.012197938272256e-17 -1.738643528012603e-15 0.0 0.0 0.0 -28.107324955379177 14.13167791199362 73.8555752138511 -30.465632689496083 4.834715435180466e-16 1.0329794535931508e-14 0.0 0.0 1.7890620083232284e-15 0.0 0.0 0.0 -14.624334204670243 -0.059361809393565335 -11.94116881308181 0.0 0.0 0.0 -1.9838806413704166 -43.75480367347333 -52.29957518710926 123.9642163818294 -1.8031699989024118e-16 7.109650215618771e-15 0.0 0.0 0.0 0.0 0.0 -6.833222948456774e-17 -0.1631284139154724 -11.27482564016294 -7.737706003039745 -3.0174004246134616 23.49035225739986 0.4118163817547974 -1.7241821476758432e-34 -4.969616689786745e-17 -3.975693351829396e-16
0.0 0.0 798.233497209814 28.452201261254245 1.811725211224802 6.259554063519861 0.0 0.0 -6.212020862233431e-17 -0.27685145567053276 -20.690515082607238 -2.764073952951204 -1.09838054916214 29.013679403264458 1.1571521195632979 0.0 0.0 1.1927080055488188e-15 0.0 0.0 -6.212020862233431e-17 -0.018022886783917443 -1.4020816042495616 1.1170548524352124 3.381623073643191 7.81595479350485e-16 -4.705320829887163e-16 0.0 0.0 2.981770013872047e-16 -27.408801927628243 13.978573417530944 73.84232924802599 -30.737915436783492 -3.3621338207301036e-15 -5.76881643995205e-15 2.2069531490250793e-31 -3.1805546814635176e-15 7.951386703658793e-15 0.0 0.0 2.981770013872047e-16 -14.698377206470404 -0.12881295959719483 -11.898625574482098 0.0 0.0 2.981770013872047e-16 -1.811762838782442 -43.94329643303393 -52.06661594710587 123.55982905500562 0.0 0.0 1.9878466759146975e-16 -1.987846675914698e-16 -6.361109362927033e-15 0.0 0.0 -6.212020862233431e-17 -0.14906284761842864 -11.381076991405992 -7.676814710252228 -3.027902788106501 23.509735926308817 0.36400806100372846 0.0 0.0 0.0
0.0 0.0 798.233497209814 28.642065743950507 1.7810204655373707 6.2170028448701 0.0 0.0 -8.696829207126804e-17 -0.2732374981722845 -20.732593750429658 -2.684365445509988 -1.0697442137360864 29.220978058984926 1.1707716871680414 0.0 0.0 3.975693351829396e-16 0.0 0.0 -8.696829207126804e-17 -0.016765886038785857 -1.3245670380243746 1.2222949120536735 3.4395603036938045 2.5354607919787833e-17 8.444542889415004e-16 0.0 0.0 2.981770013872047e-16 -26.814595618817357 13.892771998409199 73.72154141547226 -31.30411469546426 6.677068470388253e-15 -2.3830956098198342e-14 0.0 0.0 7.951386703658792e-16 0.0 0.0 2.981770013872047e-16 -14.819792130187315 -0.11917913018458122 -11.96277966671971 0.0 0.0 2.981770013872047e-16 -1.7553677450359462 -43.903109838953654 -51.9130419229368 123.29317732132127 -6.041893465697851e-15 1.1195998064381285e-14 0.0 0.0 0.0 0.0 0.0 -8.696829207126804e-17 -0.148561401248811 -11.516872298348504 -7.604121199509874 -3.0247118452036625 23.677165185380552 0.2825824714736935 -1.7241821476758432e-34 -4.969616689786745e-17 -3.975693351829396e-16
0.0 0.0 798.233497209814 28.779194441973914 1.7648020071112878 6.227153309712113 0.0 0.0 1.9257264672923634e-16 -0.24574526795852766 -20.780591012911252 -2.7329514425782144 -1.1446508950308143 29.29316638679184 1.3115452358052506 5.517382872562698e-33 -1.5902773407317582e-15 3.9756933518293955e-16 0.0 0.0 1.9257264672923634e-16 -0.01362759520465333 -1.199387156537031 1.2532465164932525 3.5246696226918957 -2.078606857064662e-15 -2.9192259858283306e-15 0.0 0.0 2.981770013872047e-16 -26.061750548933038 13.671462861751472 73.74304638879092 -31.278059142188948 -1.0354873160832226e-14 1.929213919993517e-14 0.0 0.0 -2.782985346280577e-15 0.0 0.0 2.981770013872047e-16 -14.892922048413023 -0.17640092029944363 -11.998512486501792 0.0 0.0 2.981770013872047e-16 -1.7596180825619612 -43.90879956126382 -51.715672096257684 123.01587503370801 0.0 0.0 0.0 0.0 0.0 0.0 0.0 1.9257264672923634e-16 -0.13417620556021823 -11.576210661807721 -7.6577084377711975 -3.0845319621236857 23.692710785272045 0.3769535280623182 0.0 0.0 0.0
0.0 0.0 798.233497209814 28.835445265819345 1.9756649725281858 6.16088405343574 0.0 0.0 1.9878466759146977e-16 -0.2765426032003105 -20.977959172410774 -2.631115832777318 -1.0465857879615295 29.388462193940274 1.2504279766809512 0.0 0.0 -3.975693351829396e-16 0.0 0.0 1.9878466759146977e-16 -0.016672831112881415 -1.3179032284538896 1.3334509856243262 3.6161502994986585 -6.742378198317231e-17 -2.135871246739614e-15 0.0 0.0 9.93923337957349e-17 -25.71365140770368 13.619308068375444 73.7043778516454 -31.40172807128753 2.5777338113307913e-15 2.5830136177200187e-15 1.5902773407317584e-15 1.5902773407317584e-15 -2.3854160110976376e-15 0.0 0.0 9.93923337957349e-17 -14.971142649683753 -0.1563872636168396 -12.053253723631736 0.0 0.0 9.93923337957349e-17 -1.5293107068697662 -43.84505939112084 -51.47323618523283 122.62193773561854 -2.635822593842752e-16 7.107050358723748e-15 0.0 0.0 0.0 0.0 0.0 1.9878466759146977e-16 -0.15479427319707775 -11.986340639691466 -7.57202737591033 -3.0712160069359364 24.103745576627382 0.3472318511755178 0.0 0.0 0.0
0.0 0.0 798.233497209814 28.84897423027718 1.9337386732217876 6.140314818935422 0.0 0.0 1.8636062586700292e-16 -0.31046897717601146 -20.823194600640868 -2.659100479056126 -1.0034036295209945 29.337748690470175 1.3564652837865026 0.0 0.0 7.951386703658792e-16 0.0 0.0 1.8636062586700292e-16 -0.017698135835498056 -1.2367540549860383 1.355827174048521 3.66243278167052 -1.1778063781055655e-15 4.851504421781838e-16 0.0 0.0 -4.47265502080807e-16 -25.354794639779612 13.396856581205943 73.6256949785417 -31.506355549511387 1.0793762139938646e-15 -3.8263670258411865e-15 0.0 0.0 3.975693351829396e-16 0.0 0.0 -4.47265502080807e-16 -14.973218406009671 -0.26679178691389926 -12.05310008397687 0.0 0.0 -4.47265502080807e-16 -1.3868948537881052 -43.803608858147264 -51.49779361430397 122.3192993143411 -3.068412714812174e-15 5.572123090770424e-15 -3.975693351829396e-16 0.0 0.0 0.0 0.0 1.8636062586700292e-16 -0.17474843710742569 -11.971746772888466 -7.534037903006873 -3.0313845597344278 24.256395186865937 0.27323359183290774 0.0 0.0 -3.975693351829396e-16
